<svg width="18" height="17" viewBox="0 0 18 17" fill="none" xmlns="http://www.w3.org/2000/svg">
<path d="M9 0C4.0392 0 0 3.8114 0 8.5C0 13.1852 4.03911 17 9 17C13.9644 17 18 13.1851 18 8.5C18 3.8114 13.9644 0 9 0ZM8.64 1.69651C8.64 1.50958 8.80207 1.35651 9 1.35651C9.20162 1.35651 9.36 1.50958 9.36 1.69651V2.80152C9.36 2.99194 9.20162 3.14152 9 3.14152C8.80207 3.14152 8.64 2.99194 8.64 2.80152V1.69651ZM2.97 8.83652H1.8C1.60207 8.83652 1.44 8.68694 1.44 8.49652C1.44 8.30958 1.60207 8.15652 1.8 8.15652H2.97C3.17162 8.15652 3.33 8.30958 3.33 8.49652C3.33 8.68694 3.17162 8.83652 2.97 8.83652ZM4.99325 12.7669L4.16534 13.5455C4.09326 13.6136 4.00326 13.6474 3.90975 13.6474C3.81975 13.6474 3.72606 13.6134 3.65768 13.5455C3.51371 13.4129 3.51371 13.1987 3.65768 13.0661L4.48208 12.2842C4.62253 12.1515 4.85298 12.1515 4.99323 12.2842C5.13351 12.4168 5.13352 12.631 4.99325 12.7669ZM4.99325 4.71232C4.92117 4.77689 4.83117 4.81093 4.73766 4.81093C4.64766 4.81093 4.55397 4.7769 4.48207 4.71232L3.65767 3.9304C3.51371 3.79775 3.51371 3.58359 3.65767 3.45096C3.79812 3.31499 4.02488 3.31499 4.16532 3.45096L4.99323 4.22956C5.1335 4.3622 5.13352 4.57969 4.99325 4.71232ZM9.36 15.2965C9.36 15.4869 9.20162 15.6365 9 15.6365C8.80207 15.6365 8.64 15.4869 8.64 15.2965V14.1915C8.64 14.0046 8.80207 13.8515 9 13.8515C9.20162 13.8515 9.36 14.0046 9.36 14.1915V15.2965ZM9 9.65932C8.81631 9.65932 8.64 9.61515 8.4816 9.54709L6.29275 11.8285C6.22438 11.9032 6.12717 11.9407 6.02644 11.9407C5.94014 11.9407 5.85365 11.9102 5.78527 11.8522C5.63762 11.7264 5.62672 11.5089 5.75996 11.373L7.94881 9.08824C7.8407 8.91459 7.77232 8.71404 7.77232 8.49987C7.77232 7.97959 8.13953 7.54111 8.63997 7.39487V5.49432C8.63997 5.30389 8.80204 5.15431 8.99996 5.15431C9.20159 5.15431 9.35996 5.30389 9.35996 5.49432V7.39487C9.86041 7.54113 10.2276 7.97959 10.2276 8.49987C10.2276 9.13903 9.67675 9.65932 9 9.65932ZM14.346 13.5454C14.2776 13.6135 14.1839 13.6474 14.0939 13.6474C14.0002 13.6474 13.9067 13.6133 13.8383 13.5454L13.0104 12.7668C12.87 12.6309 12.87 12.4165 13.0104 12.2841C13.1509 12.1514 13.3776 12.1514 13.5216 12.2841L14.346 13.066C14.4863 13.1986 14.4863 13.413 14.346 13.5454ZM14.346 3.93023L13.5216 4.71214C13.4495 4.77672 13.356 4.81076 13.266 4.81076C13.1723 4.81076 13.0823 4.77672 13.0104 4.71214C12.87 4.5795 12.87 4.36202 13.0104 4.22939L13.8383 3.45079C13.9788 3.31482 14.2055 3.31482 14.346 3.45079C14.4863 3.58343 14.4863 3.7976 14.346 3.93023ZM16.2 8.83643H15.03C14.832 8.83643 14.67 8.68685 14.67 8.49643C14.67 8.3095 14.832 8.15643 15.03 8.15643H16.2C16.4016 8.15643 16.56 8.3095 16.56 8.49643C16.56 8.68685 16.4016 8.83643 16.2 8.83643Z" fill="#727272"/>
</svg>
