<svg width="40" height="40" viewBox="0 0 40 40" fill="none" xmlns="http://www.w3.org/2000/svg">
<circle cx="20" cy="20" r="20" fill="#FFEDEE"/>
<g clip-path="url(#clip0_62_4204)">
<path d="M16.5 13C15.5348 13 14.75 13.7848 14.75 14.75V17.375H16.5V14.75H22.6988L23.5 15.5512V17.375H25.25V15.5512C25.25 15.0863 25.0668 14.6406 24.7387 14.3125L23.9375 13.5113C23.6094 13.1832 23.1637 13 22.6988 13H16.5ZM23.5 22.625V23.5V25.25H16.5V23.5V23.0625V22.625H23.5ZM25.25 23.5H26.125C26.609 23.5 27 23.109 27 22.625V20C27 19.0348 26.2152 18.25 25.25 18.25H14.75C13.7848 18.25 13 19.0348 13 20V22.625C13 23.109 13.391 23.5 13.875 23.5H14.75V25.25C14.75 26.2152 15.5348 27 16.5 27H23.5C24.4652 27 25.25 26.2152 25.25 25.25V23.5ZM24.8125 21.0938C24.4488 21.0938 24.1562 20.8012 24.1562 20.4375C24.1562 20.0738 24.4488 19.7812 24.8125 19.7812C25.1762 19.7812 25.4688 20.0738 25.4688 20.4375C25.4688 20.8012 25.1762 21.0938 24.8125 21.0938Z" fill="#E8565B"/>
</g>
<defs>
<clipPath id="clip0_62_4204">
<rect width="14" height="14" fill="white" transform="translate(13 13)"/>
</clipPath>
</defs>
</svg>
