<?xml version="1.0" standalone="no"?>
<!DOCTYPE svg PUBLIC "-//W3C//DTD SVG 20010904//EN"
 "http://www.w3.org/TR/2001/REC-SVG-20010904/DTD/svg10.dtd">
<svg version="1.0" xmlns="http://www.w3.org/2000/svg"
 width="482.000000pt" height="518.000000pt" viewBox="0 0 482.000000 518.000000"
 preserveAspectRatio="xMidYMid meet">
<metadata>
Created by potrace 1.16, written by Peter Selinger 2001-2019
</metadata>
<g transform="translate(0.000000,518.000000) scale(0.100000,-0.100000)"
fill="#000000" stroke="none">
<path d="M2914 3547 c-398 -302 -412 -314 -448 -366 l-28 -40 12 -178 c7 -98
14 -181 16 -184 5 -10 -37 -60 -47 -57 -5 2 -224 217 -486 479 -263 262 -491
485 -507 497 -91 69 -155 -34 -115 -183 13 -48 159 -359 202 -429 131 -215
320 -405 481 -482 90 -43 143 -51 204 -30 77 27 82 29 82 19 0 -7 -280 -270
-670 -629 -371 -342 -390 -363 -390 -436 0 -63 62 -128 122 -128 47 0 91 40
320 290 128 141 343 376 477 523 135 147 248 266 252 265 4 -2 148 -142 321
-312 172 -170 399 -394 504 -498 208 -205 216 -210 273 -162 24 20 31 34 31
62 0 34 -17 53 -284 322 -389 392 -710 720 -714 730 -2 5 6 18 17 29 14 14 29
19 53 16 18 -3 102 -9 185 -15 129 -9 157 -9 180 4 50 26 137 127 329 381 103
138 216 287 251 333 35 45 63 89 63 97 0 49 -53 -1 -330 -310 -160 -179 -294
-325 -299 -325 -12 0 -54 48 -50 57 2 5 132 154 289 332 284 321 314 362 265
369 -15 2 -104 -82 -335 -313 -173 -173 -320 -315 -326 -315 -13 0 -54 42 -54
56 0 5 142 151 315 324 231 231 315 320 313 335 -7 51 -42 26 -372 -265 -181
-159 -332 -290 -336 -290 -12 0 -52 48 -49 58 2 5 149 138 327 297 307 275
346 316 302 322 -8 1 -164 -111 -346 -250z"/>
</g>
</svg>
