<?xml version="1.0" encoding="UTF-8"?>
<svg width="700pt" height="700pt" version="1.1" viewBox="0 0 700 700" xmlns="http://www.w3.org/2000/svg">
 <path fill="currentColor" d="m553.7 195.48c-1.1289-3.4062-2.5938-6.6875-4.375-9.8008-0.41016-0.78125-0.94141-1.4883-1.5742-2.1016l-2.8008-2.8008-1.75-1.3984-17.5-15.051v-76.824c0-13.926-5.5312-27.277-15.375-37.125-9.8477-9.8438-23.199-15.375-37.125-15.375h-245.7c-13.926 0-27.277 5.5312-37.125 15.375-9.8438 9.8477-15.375 23.199-15.375 37.125v76.477l-19.773 16.102v-0.003906c-0.89062 0.6875-1.6602 1.5156-2.2773 2.4492-0.67969 0.64062-1.2148 1.418-1.5742 2.2773-1.6719 3.0469-3.1328 6.2031-4.375 9.4492-4.4844 10.52-6.8633 21.816-7 33.25v175c0 23.207 9.2188 45.461 25.629 61.871s38.664 25.629 61.871 25.629h245c23.207 0 45.461-9.2188 61.871-25.629s25.629-38.664 25.629-61.871v-175c0.023438-10.984-2.1172-21.867-6.3008-32.023zm-291.2-90.477h175c6.2539-0.4375 12.262 2.4922 15.77 7.6875 3.5039 5.1992 3.9688 11.867 1.2227 17.5-2.7461 5.6367-8.2891 9.375-14.543 9.8125h-177.45c-0.92578 0.18359-1.875 0.18359-2.8008 0-4.1406-0.67188-7.9023-2.8086-10.602-6.0195-2.6953-3.2109-4.1523-7.2852-4.0977-11.48 0-4.6406 1.8438-9.0938 5.125-12.375s7.7344-5.125 12.375-5.125zm-17.5 85.926c0.39453-4.3633 2.4102-8.4219 5.6523-11.367 3.2383-2.9492 7.4648-4.5781 11.848-4.5586h175c4.3828-0.019531 8.6094 1.6094 11.848 4.5586 3.2422 2.9453 5.2578 7.0039 5.6523 11.367 0.085938 0.51953 0.085938 1.0508 0 1.5742 0 4.6406-1.8438 9.0938-5.125 12.375s-7.7344 5.125-12.375 5.125h-175c-4.6406 0-9.0938-1.8438-12.375-5.125s-5.125-7.7344-5.125-12.375c-0.085938-0.52344-0.085938-1.0547 0-1.5742zm227.5 264.07h-35c-6.2539 0-12.031-3.3359-15.156-8.75s-3.125-12.086 0-17.5 8.9023-8.75 15.156-8.75h35c6.2539 0 12.031 3.3359 15.156 8.75s3.125 12.086 0 17.5-8.9023 8.75-15.156 8.75zm52.5-227.5c0.085938-1.1641 0.085938-2.3359 0-3.5l-35 28.523-102.73 84c-10.523 8.6641-23.73 13.398-37.359 13.398-13.633 0-26.84-4.7344-37.363-13.398l-102.55-84-35-28.523c-0.085938 1.1641-0.085938 2.3359 0 3.5v-48.477l2.1016 1.5742 16.273 13.301 17.5 13.648 124.77 102.02v0.003907c4.2773 3.4844 9.625 5.3828 15.141 5.3828 5.5117 0 10.859-1.8984 15.137-5.3828l124.07-102.02 16.102-13.301 17.5-13.648 2.1016-1.5742z"/>
</svg>
