<svg width="568" height="568" viewBox="0 0 568 568" fill="none" xmlns="http://www.w3.org/2000/svg">
<path d="M283.733 0C263.113 0 246.4 16.7133 246.4 37.3333V246.4H37.3333C16.7133 246.4 0 263.113 0 283.733C0 304.353 16.7133 321.067 37.3333 321.067H246.4V530.133C246.4 550.753 263.113 567.467 283.733 567.467C304.353 567.467 321.067 550.753 321.067 530.133V321.067H530.133C550.753 321.067 567.467 304.353 567.467 283.733C567.467 263.113 550.753 246.4 530.133 246.4H321.067V37.3333C321.067 16.7133 304.353 0 283.733 0Z" fill="black"/>
</svg>
